<?xml version="1.0" standalone="no"?>
<!DOCTYPE svg PUBLIC "-//W3C//DTD SVG 20010904//EN"
 "http://www.w3.org/TR/2001/REC-SVG-20010904/DTD/svg10.dtd">
<svg version="1.0" xmlns="http://www.w3.org/2000/svg"
 width="512.000000pt" height="512.000000pt" viewBox="0 0 512.000000 512.000000"
 preserveAspectRatio="xMidYMid meet">
<metadata>
Created by potrace 1.11, written by Peter Selinger 2001-2013
</metadata>
<g transform="translate(0.000000,512.000000) scale(0.100000,-0.100000)"
fill="#000000" stroke="none">
<path d="M1755 4747 c-158 -41 -302 -157 -370 -298 -19 -40 -35 -79 -35 -86 0
-8 -13 -13 -32 -13 -59 0 -167 -28 -235 -61 -88 -42 -198 -149 -242 -236 -47
-95 -62 -164 -60 -276 l3 -98 -67 -38 c-90 -53 -150 -105 -204 -176 -159 -211
-189 -446 -88 -706 4 -11 -12 -29 -59 -64 -161 -118 -260 -304 -273 -510 -15
-243 113 -490 321 -620 40 -25 78 -45 85 -45 8 0 10 -21 5 -78 -17 -200 82
-422 238 -538 125 -93 276 -140 413 -131 l70 5 37 -76 c67 -140 191 -249 348
-308 66 -24 89 -28 195 -28 100 -1 131 3 190 22 106 36 172 78 256 162 85 85
138 180 163 286 l14 62 -54 4 c-33 3 -62 12 -74 23 -20 18 -20 27 -20 1425 0
1398 0 1407 20 1425 13 11 41 20 75 23 l55 4 0 177 0 176 -35 19 c-49 27 -122
108 -146 162 -28 62 -35 166 -15 228 18 58 16 61 -55 107 -117 75 -300 107
-424 76z"/>
<path d="M2495 4751 c-178 -47 -271 -242 -192 -404 64 -130 204 -192 342 -152
46 13 70 28 116 74 62 63 89 125 89 207 0 102 -74 215 -167 256 -50 22 -141
32 -188 19z"/>
<path d="M3145 4750 c-68 -14 -150 -49 -206 -88 -46 -33 -54 -42 -52 -68 2
-16 6 -61 9 -100 11 -126 -45 -243 -147 -306 l-49 -31 0 -178 0 -179 34 0 c40
0 87 -16 98 -33 10 -16 10 -2818 0 -2834 -11 -17 -58 -33 -97 -33 l-33 0 14
-63 c25 -107 78 -202 163 -287 84 -84 150 -126 256 -162 59 -19 90 -23 190
-22 106 0 129 4 195 28 157 59 281 168 348 308 l37 77 66 -6 c132 -11 294 39
417 131 156 116 255 338 238 538 -5 57 -3 78 5 78 30 0 164 97 224 162 276
299 233 775 -91 1013 -47 35 -63 53 -59 64 101 260 71 495 -88 706 -54 71
-114 123 -204 176 l-67 38 3 98 c2 112 -13 181 -60 276 -44 87 -154 194 -242
236 -68 33 -176 61 -234 61 -20 0 -33 5 -33 13 0 7 -16 46 -35 86 -70 145
-225 267 -383 300 -60 12 -157 13 -217 1z"/>
<path d="M2330 2350 l0 -1390 230 0 230 0 0 1390 0 1390 -230 0 -230 0 0
-1390z"/>
</g>
</svg>
